<svg xmlns="http://www.w3.org/2000/svg" width="400" height="400" viewBox="0 0 400 400">
  <g id="Group_4789" data-name="Group 4789" transform="translate(-1305 -6078)">
    <rect id="Rectangle_1525" data-name="Rectangle 1525" width="400" height="400" transform="translate(1305 6078)" fill="#fff"/>
    <g id="Rectangle_1529" data-name="Rectangle 1529" transform="translate(1320 6093)" fill="#fff" stroke="#ee3b2b" stroke-width="2">
      <rect width="370" height="370" rx="22" stroke="none"/>
      <rect x="1" y="1" width="368" height="368" rx="21" fill="none"/>
    </g>
    <text id="_30" data-name="30" transform="translate(1506 6258)" fill="#ff6d6d" font-size="100" font-family="Nunito-Black, Nunito" font-weight="800"><tspan x="-60" y="0">30</tspan></text>
    <text id="Đăng_kí_đổi_trả_hàng" data-name="Đăng kí đổi trả hàng" transform="translate(1505 6360)" fill="#ff6d6d" font-size="18" font-family="Nunito-Bold, Nunito" font-weight="700"><tspan x="-106.875" y="0">ĐĂNG KÍ ĐỔI TRẢ HÀNG</tspan></text>
    <text id="Liên_hệ_Fahasa.com_qua_hotline_1900636467_hoặc_gửi_email_về_cskh_fahasa.com.vn_với_tiêu_đề_Đổi_Trả_Đơn_Hàng_100xxx_để_đăng_ký_đổi_trả_kể_cả_thứ_7_chủ_nhật." data-name="Liên hệ Fahasa.com qua hotline 1900636467 hoặc gửi
email về cskh@fahasa.com.vn với tiêu đề “Đổi Trả Đơn
Hàng #100xxx” để đăng ký đổi/trả kể cả thứ 7,
chủ nhật." transform="translate(1503 6387)" fill="#464a4c" font-size="14" font-family="Nunito-Regular, Nunito"><tspan x="-169.855" y="0">Liên hệ Fahasa.com qua hotline </tspan><tspan y="0" font-family="Nunito-Bold, Nunito" font-weight="700">1900636467</tspan><tspan y="0" xml:space="preserve"> hoặc gửi</tspan><tspan x="-168.231" y="19">email về </tspan><tspan y="19" fill="#030ae5">cskh@fahasa.com.vn</tspan><tspan y="19" xml:space="preserve"> với tiêu đề “Đổi Trả Đơn</tspan><tspan x="-144.774" y="38">Hàng #100xxx” để đăng ký đổi/trả kể cả thứ 7,</tspan><tspan x="-28.805" y="57">chủ nhật.</tspan></text>
    <g id="Layer_2" data-name="Layer 2" transform="translate(1385.011 6132.999)">
      <g id="_21" data-name="21" transform="translate(-0.011 0.002)">
        <path id="Path_16431" data-name="Path 16431" d="M47.17,80.333h0L59.742,67.1c2.577-2.357,1.54-4.432-1.823-4.432H48.93V61.38A50.446,50.446,0,0,1,70.491,20.049a49.943,49.943,0,0,1,59.5,1.037C92.052-22.287,11.748,6.031,11.748,62.669H3.167c-3.394,0-4.18,2.074-1.823,4.432L13.916,80.333,26.489,93.6a5.689,5.689,0,0,0,8.58,0Z" transform="translate(0.011 -0.002)" fill="#ff6d6d" fill-rule="evenodd"/>
      </g>
    </g>
    <g id="Layer_2-2" data-name="Layer 2" transform="translate(1496 6211.306)">
      <g id="_21-2" data-name="21" transform="translate(0 -0.001)">
        <path id="Path_16432" data-name="Path 16432" d="M128.642,28.454,116.319,15.219,103.964,1.952a5.69,5.69,0,0,0-8.582,0L82.806,15.219,70.231,28.454c-2.358,2.609-1.572,4.433,1.792,4.433h8.834v1.289A49.828,49.828,0,0,1,59.511,75.453,49.577,49.577,0,0,1,0,74.478c38.2,43.667,118.519,15.059,118.519-41.592h8.331c3.364,0,4.15-1.823,1.792-4.433Z" transform="translate(0 0.001)" fill="#67cdfd" fill-rule="evenodd"/>
      </g>
    </g>
  </g>
</svg>
